<svg width="21" height="20" xmlns="http://www.w3.org/2000/svg" class="svgIcon-use">

 <g>
  <title>background</title>
  <rect fill="none" id="canvas_background" height="22" width="23" y="-1" x="-1"/>
 </g>
 <g>
  <title>Layer 1</title>
  <path id="svg_1" d="m13.50001,3.67858c1.1,0 2,0.9 2,2l0,13.661l-0.012,0a0.5,0.5 0 0 1 -0.118,0.285a0.508,0.508 0 0 1 -0.708,0.03l-5.662,-4.126l-5.662,4.125a0.5,0.5 0 0 1 -0.706,-0.03a0.478,0.478 0 0 1 -0.12,-0.285l-0.012,0l0,-13.66c0,-1.1 0.9,-2 2,-2l9,0zm-10,2l0,12.636l5.162,-3.667a0.49,0.49 0 0 1 0.676,0l5.162,3.668l0,-12.637c0,-0.55 -0.45,-1 -1,-1l-9,0c-0.55,0 -1,0.45 -1,1z"/>
  <path id="svg_2" d="m18.50001,2.67858l0,13.661l-0.012,0a0.5,0.5 0 0 1 -0.118,0.285a0.508,0.508 0 0 1 -0.708,0.03l-0.162,-0.118l0,-13.858c0,-0.55 -0.45,-1 -1,-1l-9,0c-0.55,0 -1,0.45 -1,1l-1,0c0,-1.1 0.9,-2 2,-2l9,0c1.1,0 2,0.9 2,2z"/>
 </g>
</svg>