<svg width="125" height="30" xmlns="http://www.w3.org/2000/svg" class="svgIcon-use">

 <g>
  <title>background</title>
  <rect fill="none" id="canvas_background" height="32" width="127" y="-1" x="-1"/>
 </g>
 <g>
  <title>Layer 1</title>
  <path id="svg_1" d="m62.32993,24.94469c0,0.412 0,0.505 0.28,0.758l1.574,1.537l0,0.065l-6.979,0l0,-2.95a4.852,4.852 0 0 1 -4.627,3.203c-3.588,0 -6.192,-2.81 -6.192,-7.981c0,-4.843 2.81,-8.075 6.754,-8.075a4.122,4.122 0 0 1 4.056,2.51l0,-6.51a0.806,0.806 0 0 0 -0.319,-0.787l-1.499,-1.443l0,-0.065l6.951,-0.815l0,20.553l0.001,0zm-5.125,-0.937l0,-9.714a2.614,2.614 0 0 0 -2.08,-0.975c-1.695,0 -3.334,1.537 -3.334,6.099c0,4.271 1.414,5.78 3.175,5.78a2.81,2.81 0 0 0 2.24,-1.19l-0.001,0zm9.752,3.297l0,-13.115a0.88,0.88 0 0 0 -0.281,-0.786l-1.546,-1.593l0,-0.065l6.98,0l0,13.302c0,0.412 0,0.505 0.28,0.758l1.536,1.443l0,0.066l-6.97,-0.01l0.001,0zm-0.253,-20.356a2.81,2.81 0 1 1 5.62,0a2.81,2.81 0 0 1 -5.62,0zm24.234,17.967c0,0.413 0,0.534 0.281,0.787l1.574,1.537l0,0.065l-7.017,0l0,-3.363a5.077,5.077 0 0 1 -4.805,3.616c-3.11,0 -4.778,-2.267 -4.778,-6.557c0,-2.07 0,-4.337 0.066,-6.885a0.796,0.796 0 0 0 -0.281,-0.76l-1.546,-1.545l0,-0.065l6.923,0l0,8.552c0,2.81 0.412,4.684 2.173,4.684a2.81,2.81 0 0 0 2.267,-1.415l0,-9.367a0.88,0.88 0 0 0 -0.28,-0.787l-1.556,-1.602l0,-0.065l6.979,0l0,13.17zm23.756,2.39c0,-0.507 0.094,-6.952 0.094,-8.432c0,-2.81 -0.44,-4.75 -2.417,-4.75a3.138,3.138 0 0 0 -2.482,1.35c0.198,0.876 0.292,1.772 0.28,2.67c0,1.948 -0.065,4.43 -0.093,6.913a0.796,0.796 0 0 0 0.281,0.759l1.574,1.442l0,0.066l-7.045,0c0,-0.468 0.094,-6.95 0.094,-8.431c0,-2.857 -0.44,-4.75 -2.389,-4.75a2.81,2.81 0 0 0 -2.323,1.387l0,9.555c0,0.412 0,0.506 0.281,0.759l1.537,1.442l0,0.066l-6.97,0l0,-13.115a0.88,0.88 0 0 0 -0.281,-0.787l-1.546,-1.639l0,-0.065l6.98,0l0,3.334a5.002,5.002 0 0 1 5.002,-3.587c2.323,0 3.896,1.292 4.562,3.747a5.433,5.433 0 0 1 5.245,-3.747c3.11,0 4.872,2.295 4.872,6.632c0,2.07 -0.066,4.43 -0.094,6.913a0.75,0.75 0 0 0 0.318,0.759l1.537,1.443l0,0.065l-7.017,0l0,0.001zm-87.671,-2.043l2.07,1.977l0,0.065l-10.501,0l0,-0.065l2.107,-1.977a0.796,0.796 0 0 0 0.281,-0.759l0,-12.637c0,-0.534 0,-1.255 0.094,-1.873l-7.082,17.564l-0.084,0l-7.335,-16.159c-0.16,-0.402 -0.206,-0.43 -0.31,-0.702l0,10.595c-0.087,0.71 0.034,1.429 0.348,2.07l2.95,3.879l0,0.065l-7.831,0l0,-0.065l2.95,-3.888a3.69,3.69 0 0 0 0.347,-2.06l0,-11.71a2.267,2.267 0 0 0 -0.487,-1.602l-2.089,-2.708l0,-0.065l7.494,0l6.277,13.686l5.527,-13.686l7.335,0l0,0.065l-2.061,2.296a0.806,0.806 0 0 0 -0.319,0.786l0,16.15a0.75,0.75 0 0 0 0.319,0.759l0,-0.001zm8.215,-6.332l0,0.065c0,4.01 2.07,5.62 4.497,5.62a5.105,5.105 0 0 0 4.777,-2.894l0.066,0c-0.844,3.963 -3.298,5.836 -6.97,5.836c-3.962,0 -7.7,-2.389 -7.7,-7.925c0,-5.817 3.747,-8.14 7.887,-8.14c3.335,0 6.886,1.573 6.886,6.632l0,0.806l-9.443,0zm0,-0.806l4.618,0l0,-0.815c0,-4.122 -0.852,-5.218 -2.136,-5.218c-1.555,0 -2.5,1.64 -2.5,6.033l0.018,0z"/>
 </g>
</svg>