<svg width="30" height="30" xmlns="http://www.w3.org/2000/svg" class="svgIcon-use">

 <g>
  <title>background</title>
  <rect fill="none" id="canvas_background" height="32" width="32" y="-1" x="-1"/>
 </g>
 <g>
  <title>Layer 1</title>
  <path stroke="null" id="svg_1" d="m0.83333,29.16667l0,-28.61111l28.61111,0l0,28.61111l-28.61111,0zm6.99746,-10.32207c0,0.45369 -0.02207,0.5616 -0.25995,0.84198l-2.0085,2.44012l0,0.32371l5.70097,0l0,-0.32371l-2.00768,-2.44012c-0.23788,-0.28039 -0.28121,-0.41037 -0.28121,-0.84198l0,-7.31872l5.00858,10.92454l0.58367,0l4.29657,-10.92454l0,8.70105c0,0.23706 0,0.27957 -0.15123,0.43162l-1.51067,1.46816l0,0.32371l7.51246,0l0,-0.32371l-1.48941,-1.46816c-0.15041,-0.15205 -0.17167,-0.19456 -0.17167,-0.43162l0,-10.7308c0,-0.23788 0.02125,-0.28121 0.17167,-0.43162l1.49023,-1.46898l0,-0.32371l-5.28979,0l-3.7783,9.43513l-4.25325,-9.43513l-5.55056,0l0,0.32371l1.74937,2.1581c0.19537,0.2387 0.23788,0.30246 0.23788,0.62781l0,8.46317l0.00082,0z"/>
 </g>
</svg>