<svg width="20" height="20" xmlns="http://www.w3.org/2000/svg" class="svgIcon-use">

 <g>
  <title>background</title>
  <rect fill="none" id="canvas_background" height="22" width="22" y="-1" x="-1"/>
 </g>
 <g>
  <title>Layer 1</title>
  <path stroke="null" id="svg_1" d="m17.173,11.94329l-1.673,-1.52l0,-3.646a5.5,5.5 0 0 0 -6.04,-5.474c-2.86,0.273 -4.96,2.838 -4.96,5.71l0,3.41l-1.68,1.553c-0.204,0.19 -0.32,0.456 -0.32,0.734l0,2.563a1,1 0 0 0 1,1l3.49,0a3.079,3.079 0 0 0 3.01,2.45a3.08,3.08 0 0 0 3.01,-2.45l3.49,0a1,1 0 0 0 1,-1l0,-2.59c0,-0.28 -0.12,-0.55 -0.327,-0.74zm-7.173,5.63c-0.842,0 -1.55,-0.546 -1.812,-1.3l3.624,0a1.92,1.92 0 0 1 -1.812,1.3zm6.35,-2.45l-12.7,0l0,-2.347l1.63,-1.51c0.236,-0.216 0.37,-0.522 0.37,-0.843l0,-3.41c0,-2.35 1.72,-4.356 3.92,-4.565a4.353,4.353 0 0 1 4.78,4.33l0,3.645c0,0.324 0.137,0.633 0.376,0.85l1.624,1.477l0,2.373z"/>
 </g>
</svg>